<?xml version="1.0" encoding="UTF-8"?>
<svg xmlns="http://www.w3.org/2000/svg" id="a" width="865.76" height="682.89" viewBox="0 0 865.76 682.89">
  <polygon points="465.76 523.91 465.2 549.14 499.48 549.14 499.48 526.73 465.76 523.91" fill="#f0b1bf" stroke="#002346" stroke-miterlimit="10"></polygon>
  <rect x="338.23" y="102.27" width="22.41" height="467.29" fill="#fff" stroke="#002346" stroke-miterlimit="10"></rect>
  <rect x="126" y="102.27" width="22.41" height="467.29" fill="#fff" stroke="#002346" stroke-miterlimit="10"></rect>
  <path d="M500.8,429.18s-21.76,10.51-15.82,42.18l42.18-7.91,1.32-25.05-27.68-9.23Z" fill="#002346" stroke="#002346" stroke-miterlimit="10"></path>
  <rect x="142.48" y="307.91" width="204.32" height="14.5" rx="7.25" ry="7.25" fill="#e6e6e6" stroke="#002346" stroke-miterlimit="10"></rect>
  <path d="M374.18,352.42c10.62-23.59-23.59-40.1-23.59-40.1-6.82-5.31-5.85-14.03-4.28-19.58,1.65-5.85,2.73-11.86,2.85-17.94,.56-28.25-10.14-41.86-21.22-48.41-13.88-8.2-31.29-6.7-44.43,2.65-29.46,20.95-14.3,65.59-14.3,65.59,2.36,20.05-15.92,26.54-15.92,26.54-24.77,10.62-15.33,34.21-15.33,34.21l136.23-2.95Z" fill="#002346" stroke="#002346" stroke-miterlimit="10"></path>
  <ellipse cx="709.73" cy="247.93" rx="13.84" ry="3.3" fill="#fff" stroke="#002346" stroke-miterlimit="10"></ellipse>
  <ellipse cx="709.07" cy="337.57" rx="21.09" ry="4.61" fill="#fff" stroke="#002346" stroke-miterlimit="10"></ellipse>
  <ellipse cx="709.07" cy="312.52" rx="34.27" ry="5.93" fill="#fff" stroke="#002346" stroke-miterlimit="10"></ellipse>
  <ellipse cx="709.07" cy="283.52" rx="34.27" ry="5.93" fill="#fff" stroke="#002346" stroke-miterlimit="10"></ellipse>
  <rect x="595.7" y="517.5" width="22.41" height="31.64" fill="#f0b1bf" stroke="#002346" stroke-miterlimit="10"></rect>
  <path d="M622.07,526.73h-122.59l-42.18-3.95,16.17-45.36c4.06-11.43,14.2-19.44,26.01-20.95,1.33-.17,2.69-.26,4.06-.26h17.03l58-.66c19.77,2.64,26.36,19.77,26.36,19.77l17.14,51.41Z" fill="#4c9060" stroke="#002346" stroke-miterlimit="10"></path>
  <path d="M510.02,456.21v48.11h-10.55v-47.85c1.33-.17,2.69-.26,4.06-.26h6.49Z" fill="#e6e6e6" stroke="#002346" stroke-miterlimit="10"></path>
  <rect x="568.02" y="455.55" width="10.55" height="48.77" fill="#e6e6e6" stroke="#002346" stroke-miterlimit="10"></rect>
  <rect x="499.48" y="491.14" width="79.09" height="58" fill="#fff" stroke="#002346" stroke-miterlimit="10"></rect>
  <path d="M810.76,548.95l-30.67,59.83c-.06,.12-.21,.2-.36,.2H55.63c-.33,0-.51-.34-.3-.57l60.11-59.82c.08-.08,.18-.12,.3-.12H810.4c.29,0,.47,.25,.36,.47Z" fill="#fff" stroke="#002346" stroke-miterlimit="10"></path>
  <path d="M779.4,626.09l-724.64-2.22v-16.21H779.98v17.92c0,.28-.26,.5-.58,.5Z" fill="#002346" stroke="#002346" stroke-miterlimit="10"></path>
  <path d="M811,549.1v14.9l-30.87,61.83c-.04,.07-.15,.04-.15-.03v-18.13l30.7-58.63c.08-.14,.32-.09,.32,.07Z" fill="#002346" stroke="#002346" stroke-miterlimit="10"></path>
  <circle cx="537.7" cy="460.82" r="19.77" fill="#78f574" stroke="#002346" stroke-linecap="round" stroke-linejoin="round"></circle>
  <path d="M413.06,371.25l20.51,73.75,26.36,50.09-44.82,19.77-13.14-11.76c-7.83-7-13.9-15.74-17.74-25.51l-5.97-15.21-2.69-68.79-2.64-38.23,39.55,11.86,.58,4.02Z" fill="#f0b1bf" stroke="#002346" stroke-miterlimit="10"></path>
  <path d="M375.57,471.36l32.86,77.11H224.7l16.41-74.48-9.23-97.55h-38.23s-.24-19.79,20.25-36.07c12.59-10.03,28.3-15.34,44.41-15.34h102.75s50.09-1.32,59.32,44.82l-34.27,3.95s7.91,50.09-10.55,97.55Z" fill="#78f574" stroke="#002346" stroke-linecap="round" stroke-linejoin="round"></path>
  <circle cx="306.36" cy="338.89" r="28.34" fill="#fff" stroke="#002346" stroke-miterlimit="10"></circle>
  <line x1="565.39" y1="539.91" x2="569.34" y2="535.95" fill="none" stroke="red" stroke-linecap="round" stroke-linejoin="round"></line>
  <path d="M617.65,548.48h-11.15l6.34-7.25,4.8,7.21s.01,.03,.01,.04Z" fill="#f0b1bf" stroke="#002346" stroke-miterlimit="10"></path>
  <polygon points="408.43 548.48 224.7 548.48 241.12 474 249.17 473.84 370.3 471.47 375.57 471.36 408.43 548.48" fill="#4c9060" stroke="#002346" stroke-miterlimit="10"></polygon>
  <line x1="234.52" y1="375.14" x2="233.21" y2="351.41" fill="none" stroke="#002346" stroke-linecap="round" stroke-linejoin="round"></line>
  <line x1="386.11" y1="373.82" x2="382.16" y2="351.41" fill="none" stroke="#002346" stroke-linecap="round" stroke-linejoin="round"></line>
  <path d="M370.65,548.48h-121.63v-74.48c.05-.05,.11-.11,.14-.16,15.7-16.15,19.63-90.8,19.63-90.8h88.32c-2.64,60.64,13.18,88.32,13.18,88.32v.11l.36,77.01Z" fill="#fff" stroke="#002346" stroke-miterlimit="10"></path>
  <line x1="351.12" y1="324.98" x2="351.12" y2="383.05" fill="none" stroke="#002346" stroke-linecap="round" stroke-linejoin="round"></line>
  <line x1="264.12" y1="324.98" x2="264.12" y2="383.05" fill="none" stroke="#002346" stroke-linecap="round" stroke-linejoin="round"></line>
  <polygon points="459.93 495.09 463.89 493.77 473.11 513.55 471.8 521.45 453.34 524.09 431.84 507.32 459.93 495.09" fill="#4c9060" stroke="#002346" stroke-miterlimit="10"></polygon>
  <circle cx="274.73" cy="274.3" r="9.89" fill="#f0b1bf" stroke="#002346" stroke-miterlimit="10"></circle>
  <circle cx="339.32" cy="274.3" r="9.89" fill="#f0b1bf" stroke="#002346" stroke-miterlimit="10"></circle>
  <path d="M287.14,307.4v25.5c0,10.95,8.88,19.83,19.83,19.83h0c10.95,0,19.83-8.88,19.83-19.83v-24.93l-39.65-.57Z" fill="#f0b1bf" stroke="#002346" stroke-miterlimit="10"></path>
  <rect x="276.05" y="232.12" width="61.95" height="83.05" rx="30.98" ry="30.98" fill="#f0b1bf" stroke="#002346" stroke-miterlimit="10"></rect>
  <path d="M258.25,445l-6.59,30.32c-3.18,13.97-12.47,20.91-21.25,24.34-13.03,5.1-28.04,2.49-38.25-7.07-7.98-7.47-11.09-17-12.13-25.13-.96-7.52-.16-15.17,2.01-22.43l20.4-68.32,29.44-.25,14.5,60.64,11.86,7.91Z" fill="#f0b1bf" stroke="#002346" stroke-miterlimit="10"></path>
  <line x1="204.74" y1="428.06" x2="197.62" y2="451.59" fill="none" stroke="#002346" stroke-linecap="round" stroke-linejoin="round"></line>
  <path d="M280.85,484.55h58v28.62c0,7.48-6.07,13.56-13.56,13.56h-30.89c-7.48,0-13.56-6.07-13.56-13.56v-28.62h0Z" fill="#e6e6e6" stroke="#002346" stroke-miterlimit="10"></path>
  <line x1="281.81" y1="498.2" x2="338.94" y2="498.2" fill="#fff" stroke="#002346" stroke-miterlimit="10"></line>
  <path d="M375.57,511.57v67.87c0,6.56,5.32,11.88,11.88,11.88h69.83c6.56,0,11.88-5.32,11.88-11.88v-67.87h-93.59Z" fill="#fff" stroke="#002346" stroke-miterlimit="10"></path>
  <rect x="461.31" y="511.14" width="12.82" height="22.23" rx="6.41" ry="6.41" transform="translate(717.92 -132.66) rotate(62.76)" fill="#4c9060" stroke="#002346" stroke-miterlimit="10"></rect>
  <path d="M460.8,530.21s-4.82,8.38,3.09,11.02c0,0-6.59,3.95-3.95,9.23,0,0,1.32,3.95,6.59,3.95,0,0-11.86,6.59-7.91,13.18,0,0,3.12,5.19,10.79,1.94l6.31-4.85c1.5-1.15,2.57-2.84,2.75-4.73,.16-1.71-.34-3.76-2.71-5.54,0,0,10.55-5.27,2.64-14.5,0,0,8.52-9.02-2.33-14.4l-9.58,4.6s-3.5,.94-5.68,.1Z" fill="#4c9060" stroke="#002346" stroke-miterlimit="10"></path>
  <line x1="463.89" y1="541.23" x2="478.39" y2="539.91" fill="#fff" stroke="#002346" stroke-miterlimit="10"></line>
  <line x1="465.88" y1="554.27" x2="475.75" y2="554.41" fill="#fff" stroke="#002346" stroke-miterlimit="10"></line>
  <ellipse cx="422.36" cy="511.57" rx="46.8" ry="3.3" fill="#002346" stroke="#002346" stroke-miterlimit="10"></ellipse>
  <g>
    <path d="M396.85,484.86s-1.71,25.05,16.32,18.16c2.02-.77,3.66-2.37,4.3-4.43,1.21-3.85-.62-9.96-20.62-13.73Z" fill="#7ccf92" stroke="#002346" stroke-miterlimit="10"></path>
    <path d="M445.33,492.04s-12.89,2.07-11.24,8.58c.46,1.8,1.92,3.19,3.71,3.65,2.94,.76,7.53-.01,7.53-12.23Z" fill="#7ccf92" stroke="#002346" stroke-miterlimit="10"></path>
    <path d="M431.96,479.94c-1.54-4.24-1.05-10.48,8.43-17.53,0,0,10.77-6.73,22.44-7.63l-1.35,16.61s-.19,24.78-22.68,15.55c-3.15-1.29-5.69-3.81-6.85-7Z" fill="#7ccf92" stroke="#002346" stroke-miterlimit="10"></path>
    <g>
      <path d="M385.63,417.98s-18.87,69.8,25.25,61.64c7.05-1.3,13.25-5.67,16.44-12.1,5.35-10.77,5.44-27.1-41.69-49.55Z" fill="#7ccf92" stroke="#002346" stroke-miterlimit="10"></path>
      <path d="M393.26,429.2s27.38,25.14,30.52,82.14" fill="none" stroke="#002346" stroke-linecap="round" stroke-linejoin="round"></path>
      <path d="M396.41,463.76s11.29-1.54,17.99,1.25" fill="none" stroke="#002346" stroke-linecap="round" stroke-linejoin="round"></path>
      <path d="M417.5,447.6s-4.04,3.97-5.16,10.74" fill="none" stroke="#002346" stroke-linecap="round" stroke-linejoin="round"></path>
      <path d="M397.3,446.71s4.69-.77,10.42,3.43" fill="none" stroke="#002346" stroke-linecap="round" stroke-linejoin="round"></path>
      <path d="M402.24,431.44s-1.02,3.78,.61,9.97" fill="none" stroke="#002346" stroke-linecap="round" stroke-linejoin="round"></path>
    </g>
    <path d="M425.63,511.85s7.13-33.72,33.17-53.47" fill="none" stroke="#002346" stroke-linecap="round" stroke-linejoin="round"></path>
    <path d="M439.13,480.56s5.75-2.44,10.69,1.6" fill="none" stroke="#002346" stroke-linecap="round" stroke-linejoin="round"></path>
    <path d="M445.18,471.56s4.64-4.21,9.57-3.31" fill="none" stroke="#002346" stroke-linecap="round" stroke-linejoin="round"></path>
    <line x1="449.82" y1="460.17" x2="450.15" y2="465.82" fill="none" stroke="#002346" stroke-linecap="round" stroke-linejoin="round"></line>
    <path d="M440.84,469.15s1.54,3.23,.77,7.23" fill="none" stroke="#002346" stroke-linecap="round" stroke-linejoin="round"></path>
    <path d="M400.45,487.55s16.14,10.56,19.29,24.36" fill="none" stroke="#002346" stroke-linecap="round" stroke-linejoin="round"></path>
    <path d="M406.73,498.32s2.62-1.15,6.02,.55" fill="none" stroke="#002346" stroke-linecap="round" stroke-linejoin="round"></path>
    <path d="M410.32,491.59s-.86,1.62-.21,4.18" fill="none" stroke="#002346" stroke-linecap="round" stroke-linejoin="round"></path>
    <path d="M402.69,492.94s1.8-.9,4.65,.35" fill="none" stroke="#002346" stroke-linecap="round" stroke-linejoin="round"></path>
    <path d="M442.19,494.73s-8.08,6.73-10.32,17.06" fill="none" stroke="#002346" stroke-linecap="round" stroke-linejoin="round"></path>
  </g>
  <g>
    <path d="M388.75,439.73s1.33-.17,3.49,.07" fill="none" stroke="#fff" stroke-linecap="round" stroke-linejoin="round"></path>
    <path d="M398.97,441.61c8.67,3.7,20.35,14.24,24.56,43.88" fill="none" stroke="#fff" stroke-dasharray="0 0 7 7" stroke-linecap="round" stroke-linejoin="round"></path>
    <path d="M423.98,488.97c.13,1.13,.25,2.3,.36,3.48" fill="none" stroke="#fff" stroke-linecap="round" stroke-linejoin="round"></path>
  </g>
  <path d="M386.96,432.1s30.79,1.04,40.02,30.04" fill="none" stroke="#fff" stroke-dasharray="0 7" stroke-linecap="round" stroke-linejoin="round"></path>
  <path d="M386.96,425.89s29.47-.66,47.93,27.02" fill="none" stroke="#fff" stroke-dasharray="0 7" stroke-linecap="round" stroke-linejoin="round"></path>
  <g>
    <path d="M386.52,424c-.1-1.06-1.03-1.84-2.09-1.74-1.06,.1-1.84,1.03-1.74,2.09l.27,2.98-5.46,4.85-22.11,.65,7.58-13.65-37.09-29.44-38.54,35.33c-3.87,3.54-3.68,9.69,.4,12.99l36.7,29.74c4.14,3.36,10.31,2.16,12.9-2.5l8.3-14.95,32.61-13.59,6,4.8,.23,2.55c.1,1.06,1.03,1.84,2.09,1.74,1.06-.1,1.84-1.03,1.74-2.09l-1.81-19.77Z" fill="#e6e6e6" stroke="#002346" stroke-miterlimit="10"></path>
    <line x1="382.95" y1="427.32" x2="384.26" y2="441.57" fill="none" stroke="#2a2c45" stroke-linecap="round" stroke-linejoin="round"></line>
    <path d="M322.49,392.25s-5.06-12.35-15.11-11.1c-3.15,.39-5.91,2.29-7.64,4.95-3.45,5.31-10.35,18.18-13.51,40.02" fill="none" stroke="#002346" stroke-linecap="round" stroke-linejoin="round"></path>
    <rect x="342.57" y="375.62" width="5.69" height="54.46" rx="2.85" ry="2.85" transform="translate(-185.24 403.04) rotate(-49.41)" fill="#4c9060" stroke="#002346" stroke-miterlimit="10"></rect>
  </g>
  <path d="M262.21,445s-46.14,5.27-60.64-22.41l11.82-27.94c1.75-4.14,4.61-7.72,8.25-10.36l41.88-30.25s17.14-6.59,32.95,1.32l19.77,14.5s9.23,6.59-3.95,13.18c0,0,5.27,3.95,2.64,9.23,0,0-2.64,2.64-7.91,1.32,0,0,3.95,10.55-11.86,9.23,0,0,0,10.55-7.91,6.59l-9.23-3.95s-4.13,4.96-8.47,7.02c-2.23,1.06-3.69,3.26-4,5.7l-3.35,26.82Z" fill="#4c9060" stroke="#002346" stroke-miterlimit="10"></path>
  <line x1="312.3" y1="383.05" x2="297.8" y2="372.5" fill="none" stroke="#002346" stroke-linecap="round" stroke-linejoin="round"></line>
  <line x1="307.02" y1="393.59" x2="291.21" y2="383.05" fill="none" stroke="#002346" stroke-linecap="round" stroke-linejoin="round"></line>
  <line x1="295.16" y1="402.82" x2="283.3" y2="394.91" fill="none" stroke="#002346" stroke-linecap="round" stroke-linejoin="round"></line>
  <path d="M520.57,443.68v12.52c0,9.1,7.38,16.48,16.48,16.48h0c9.1,0,16.48-7.38,16.48-16.48v-24.39h-27.68l-5.27,11.86Z" fill="#f0b1bf" stroke="#002346" stroke-miterlimit="10"></path>
  <rect x="488.93" y="383.05" width="56.68" height="67.23" rx="27.67" ry="27.67" fill="#f0b1bf" stroke="#002346" stroke-miterlimit="10"></rect>
  <path d="M270.11,545.06v41.34c0,2.72,2.2,4.92,4.92,4.92h19.55c10.32,0,20.4-3.77,27.79-10.96,.13-.13,.27-.26,.4-.4,8.96-8.98,7.33-24.11-3.42-30.84-1.86-1.17-4.03-2.32-6.55-3.42-6.71-2.93-13.94-4.48-21.26-4.81l-16.3-.74c-2.8-.13-5.14,2.11-5.14,4.92Z" fill="#438dca" stroke="#002346" stroke-miterlimit="10"></path>
  <g>
    <path d="M263.21,561.31h24.52c3.22,0,5.84,2.62,5.84,5.84h0c0,3.22-2.62,5.84-5.84,5.84h-24.52v-11.67h0Z" transform="translate(13.74 -6.54) rotate(1.38)" fill="#fff" stroke="#002346" stroke-miterlimit="10"></path>
    <rect x="221.19" y="560.45" width="43.19" height="11.67" transform="translate(13.71 -5.68) rotate(1.38)" fill="#fff" stroke="#002346" stroke-miterlimit="10"></rect>
    <path d="M200.19,557.22h18.68v16.34h-18.68c-4.51,0-8.17-3.66-8.17-8.17h0c0-4.51,3.66-8.17,8.17-8.17Z" transform="translate(13.68 -4.78) rotate(1.38)" fill="#fff" stroke="#002346" stroke-miterlimit="10"></path>
    <rect x="259.71" y="558.6" width="5.84" height="16.34" rx="2.92" ry="2.92" transform="translate(13.73 -6.16) rotate(1.38)" fill="#e6e6e6" stroke="#002346" stroke-miterlimit="10"></rect>
    <rect x="216.53" y="554.05" width="5.84" height="23.35" rx="2.92" ry="2.92" transform="translate(13.69 -5.12) rotate(1.38)" fill="#438dca" stroke="#002346" stroke-miterlimit="10"></rect>
  </g>
  <line x1="107.41" y1="56.8" x2="802" y2="56.8" fill="none" stroke="#2a2c45" stroke-linecap="round" stroke-linejoin="round"></line>
  <polyline points="709.73 56.8 709.73 251.89 709.73 342.18" fill="none" stroke="#002346" stroke-linecap="round" stroke-linejoin="round"></polyline>
  <polyline points="723.57 248.59 709.63 209.92 695.89 248.59" fill="none" stroke="#002346" stroke-linecap="round" stroke-linejoin="round"></polyline>
  <ellipse cx="709.73" cy="210.37" rx="2.64" ry="1.32" fill="#002346" stroke="#002346" stroke-miterlimit="10"></ellipse>
  <polyline points="695.89 248.59 674.79 283.52 674.79 312.52 687.98 337.57" fill="none" stroke="#002346" stroke-linecap="round" stroke-linejoin="round"></polyline>
  <polyline points="723.57 248.59 743.34 283.52 743.34 313.18 730.16 337.57" fill="none" stroke="#002346" stroke-linecap="round" stroke-linejoin="round"></polyline>
  <polyline points="698.86 250.02 681.35 287.11 681.51 316.14 694.13 340.76" fill="none" stroke="#002346" stroke-linecap="round" stroke-linejoin="round"></polyline>
  <polyline points="701.39 250.65 690.18 288.68 690.18 317.72 697.92 341.55" fill="none" stroke="#002346" stroke-linecap="round" stroke-linejoin="round"></polyline>
  <polyline points="705.18 251.13 699.81 289 699.81 318.51 702.81 342.02" fill="none" stroke="#002346" stroke-linecap="round" stroke-linejoin="round"></polyline>
  <polyline points="713.7 251.28 719.54 289.31 719.54 318.35 715.91 341.86" fill="none" stroke="#002346" stroke-linecap="round" stroke-linejoin="round"></polyline>
  <polyline points="716.98 251.23 728.85 288.37 728.85 317.25 721.27 341.23" fill="none" stroke="#002346" stroke-linecap="round" stroke-linejoin="round"></polyline>
  <polyline points="725.37 340.44 738.16 315.67 738.16 286.95 720.48 250.02" fill="none" stroke="#002346" stroke-linecap="round" stroke-linejoin="round"></polyline>
  <polygon points="502.77 92.39 547.59 66.02 591.09 91.07 591.09 139.84 547.59 166.21 504.09 141.16 502.77 92.39" fill="none" stroke="#002346" stroke-linecap="round" stroke-linejoin="round"></polygon>
  <polygon points="558.8 182.02 603.61 155.66 647.11 180.71 647.11 229.48 603.61 255.84 560.11 230.8 558.8 182.02" fill="#7ccf92" stroke="#002346" stroke-miterlimit="10"></polygon>
  <polyline points="508.99 143.61 533.75 116.77 567.18 154.06" fill="none" stroke="#002346" stroke-linecap="round" stroke-linejoin="round"></polyline>
  <polyline points="547.12 130.9 561.43 103.59 590.43 126" fill="none" stroke="#002346" stroke-linecap="round" stroke-linejoin="round"></polyline>
  <circle cx="544.3" cy="100.96" r="5.27" fill="#4c9060" stroke="#002346" stroke-miterlimit="10"></circle>
  <path d="M579.89,202.46s2.45-3.67-3.26-6.29c-.87-.4-1.7-.89-2.38-1.56-1.27-1.27-2.53-3.48-.95-6.64,0,0,2.64-6.59,13.18-2.64,0,0,3.95,2.64,3.95,0,0,0-5.27-13.18,3.95-15.82" fill="none" stroke="#002346" stroke-linecap="round" stroke-linejoin="round"></path>
  <path d="M597.02,197.18s-6.22-11.19,5.5-13.04c1.87-.3,3.68-.93,5.33-1.86,2.58-1.45,5.11-3.88,3.66-7.51,0,0-1.32-3.95-6.59-1.32" fill="none" stroke="#002346" stroke-linecap="round" stroke-linejoin="round"></path>
  <path d="M607.57,198.5s-2.64-7.91,3.95-11.86c0,0,3.92-2.94,8.38,2.16,1.46,1.67,3.42,2.86,5.63,3.07,2.66,.25,5.5,1.36,3.13,5.31" fill="none" stroke="#002346" stroke-linecap="round" stroke-linejoin="round"></path>
  <path d="M586.48,209.05s13.18-9.23,13.18,2.64c0,0-1.32,9.23,5.27,7.91,0,0,11.86-5.27,7.91,6.59" fill="none" stroke="#002346" stroke-linecap="round" stroke-linejoin="round"></path>
  <path d="M627.34,202.46s10.55,5.27,1.32,15.82c0,0-.83,.83,.15,3.15s1.18,4.88,.3,7.2c-.72,1.88-1.76,2.83-4.4,2.83,0,0-5.27,0-6.59-6.59" fill="none" stroke="#002346" stroke-linecap="round" stroke-linejoin="round"></path>
  <path d="M575.93,211.68s-6.59,3.95,1.32,9.23c0,0,2.35,1.18,.39,4.64-.6,1.06-.96,2.26-1.01,3.48-.12,2.59,1.12,5.88,8.53,5.06" fill="none" stroke="#002346" stroke-linecap="round" stroke-linejoin="round"></path>
  <path d="M590.43,227.5s10.55-3.95,11.86,5.27c0,0,2.64,9.23,9.23,2.64" fill="none" stroke="#002346" stroke-linecap="round" stroke-linejoin="round"></path>
  <rect x="142.48" y="198.5" width="204.32" height="14.5" rx="7.25" ry="7.25" fill="#e6e6e6" stroke="#002346" stroke-miterlimit="10"></rect>
  <g>
    <path d="M186.11,159.17h64.61v11.43c0,15.54-12.61,28.15-28.15,28.15h-8.31c-15.54,0-28.15-12.61-28.15-28.15v-11.43h0Z" fill="#4c9060" stroke="#002346" stroke-miterlimit="10"></path>
    <path d="M220.91,159.27s-2.61-13.52-11.16-10.79c-2.55,.81-4.64,2.75-5.76,5.19-1.93,4.24-3.34,12.77,3.93,27.31,0,0,9.69,17.77,8.08,46.85" fill="none" stroke="#002346" stroke-linecap="round" stroke-linejoin="round"></path>
    <path d="M225.24,159.27s-6.01-18.68,14.99-31.6c0,0,19.38-12.92,17.77-40.38" fill="none" stroke="#002346" stroke-linecap="round" stroke-linejoin="round"></path>
    <path d="M234.86,159.51s.13-.27,.4-.73c8.94-15.16,32.25-9.58,33.52,7.98,.28,3.86,.03,8.56-1.1,14.21,0,0-3.23,11.31,3.23,22.62" fill="none" stroke="#002346" stroke-linecap="round" stroke-linejoin="round"></path>
    <path d="M198.54,159.27s-4.08-10.93-14.06-6.55c-3.06,1.34-5.59,3.73-7.17,6.67-2.43,4.51-4.8,12.74-.98,25.33,1.19,3.94,1.76,8.07,1.43,12.17-.35,4.39-1.68,9.45-5.38,13.16" fill="none" stroke="#002346" stroke-linecap="round" stroke-linejoin="round"></path>
    <path d="M256.64,104.07s1.34-6.12,4.68-8.66c3.89-2.97,8.52,3.2,4.58,6.11-1.66,1.23-4.5,2.24-9.26,2.56Z" fill="#7ccf92" stroke="#002346" stroke-miterlimit="10"></path>
    <path d="M248.4,120.5s4.96-3.82,9.15-3.63c4.89,.23,4.47,7.93-.41,7.62-2.06-.13-4.89-1.18-8.74-3.99Z" fill="#7ccf92" stroke="#002346" stroke-miterlimit="10"></path>
    <path d="M256.09,102.45s-1.34-6.12-4.68-8.66c-3.89-2.97-8.52,3.2-4.58,6.11,1.66,1.23,4.5,2.24,9.26,2.56Z" fill="#7ccf92" stroke="#002346" stroke-miterlimit="10"></path>
    <path d="M249.67,119.08s1.99-5.94,.44-9.84c-1.82-4.55-8.96-1.63-7.07,2.89,.8,1.91,2.72,4.24,6.63,6.95Z" fill="#7ccf92" stroke="#002346" stroke-miterlimit="10"></path>
    <path d="M234.44,130.73s3.79-4.99,3.57-9.17c-.26-4.89-7.96-4.42-7.62,.46,.14,2.06,1.21,4.88,4.05,8.71Z" fill="#7ccf92" stroke="#002346" stroke-miterlimit="10"></path>
    <path d="M235.52,130.81s4.58,4.28,8.77,4.48c4.89,.24,5.21-7.47,.31-7.63-2.07-.07-4.98,.71-9.08,3.15Z" fill="#7ccf92" stroke="#002346" stroke-miterlimit="10"></path>
    <path d="M225.86,145.63s5.54,2.92,9.64,2.02c4.78-1.06,3.06-8.58-1.71-7.44-2.01,.48-4.62,2-7.93,5.43Z" fill="#7ccf92" stroke="#002346" stroke-miterlimit="10"></path>
    <path d="M217.6,151.49s-6.26,.16-9.39,2.95c-3.65,3.26,1.53,8.98,5.13,5.66,1.52-1.4,3.05-4,4.27-8.61Z" fill="#7ccf92" stroke="#002346" stroke-miterlimit="10"></path>
    <path d="M203.48,172.89s-6.05,1.63-8.43,5.08c-2.78,4.03,3.6,8.36,6.32,4.29,1.15-1.72,2.02-4.61,2.11-9.37Z" fill="#7ccf92" stroke="#002346" stroke-miterlimit="10"></path>
    <path d="M205.82,172.87s6.26-.25,9.57,2.33c3.86,3.01-.94,9.06-4.75,5.98-1.61-1.3-3.31-3.79-4.82-8.31Z" fill="#7ccf92" stroke="#002346" stroke-miterlimit="10"></path>
    <path d="M203.76,156.96s4.7,4.14,5.31,8.29c.71,4.84-6.93,5.91-7.56,1.05-.27-2.05,.22-5.03,2.25-9.34Z" fill="#7ccf92" stroke="#002346" stroke-miterlimit="10"></path>
    <path d="M202.72,156.59s-5.39,3.19-9.53,2.48c-4.83-.82-3.47-8.42,1.34-7.52,2.03,.38,4.71,1.77,8.18,5.03Z" fill="#7ccf92" stroke="#002346" stroke-miterlimit="10"></path>
    <path d="M186.42,151.04s-5.76,2.47-9.77,1.24c-4.68-1.44-2.36-8.79,2.3-7.28,1.97,.64,4.44,2.36,7.47,6.04Z" fill="#7ccf92" stroke="#002346" stroke-miterlimit="10"></path>
    <path d="M187.08,152.05s2.83,5.59,1.87,9.67c-1.13,4.76-8.62,2.92-7.41-1.82,.51-2,2.07-4.59,5.55-7.84Z" fill="#7ccf92" stroke="#002346" stroke-miterlimit="10"></path>
    <path d="M175.53,161.91s-3.42,5.25-7.43,6.46c-4.69,1.41-6.85-6-2.14-7.33,1.99-.56,5.01-.51,9.57,.87Z" fill="#7ccf92" stroke="#002346" stroke-miterlimit="10"></path>
    <path d="M176.63,162.37s5.46,3.07,6.92,7c1.71,4.59-5.54,7.22-7.18,2.6-.69-1.95-.83-4.96,.25-9.6Z" fill="#7ccf92" stroke="#002346" stroke-miterlimit="10"></path>
    <path d="M174.53,176.15s-.83,6.21-3.94,9.02c-3.63,3.28-8.76-2.48-5.08-5.7,1.56-1.36,4.3-2.61,9.02-3.32Z" fill="#7ccf92" stroke="#002346" stroke-miterlimit="10"></path>
    <path d="M175.73,176.1s6.25,.43,9.26,3.35c3.51,3.41-1.91,8.9-5.36,5.43-1.46-1.47-2.88-4.13-3.89-8.78Z" fill="#7ccf92" stroke="#002346" stroke-miterlimit="10"></path>
    <path d="M177.76,192.3s-.83,6.21-3.94,9.02c-3.63,3.28-8.76-2.48-5.08-5.7,1.56-1.36,4.3-2.61,9.02-3.32Z" fill="#7ccf92" stroke="#002346" stroke-miterlimit="10"></path>
    <path d="M178.96,192.25s6.25,.43,9.26,3.35c3.51,3.41-1.91,8.9-5.36,5.43-1.46-1.47-2.88-4.13-3.89-8.78Z" fill="#7ccf92" stroke="#002346" stroke-miterlimit="10"></path>
    <path d="M175.34,205.37s.43,6.25-2.05,9.63c-2.9,3.95-9.08-.67-6.12-4.57,1.25-1.65,3.69-3.42,8.17-5.06Z" fill="#7ccf92" stroke="#002346" stroke-miterlimit="10"></path>
    <path d="M212.28,190.64s6.26-.25,9.57,2.33c3.86,3.01-.94,9.06-4.75,5.98-1.61-1.3-3.31-3.79-4.82-8.31Z" fill="#7ccf92" stroke="#002346" stroke-miterlimit="10"></path>
    <path d="M217.12,210.02s6.26-.25,9.57,2.33c3.86,3.01-.94,9.06-4.75,5.98-1.61-1.3-3.31-3.79-4.82-8.31Z" fill="#7ccf92" stroke="#002346" stroke-miterlimit="10"></path>
    <path d="M215.78,222.94s2.75,5.63,1.72,9.69c-1.21,4.75-8.67,2.79-7.38-1.94,.54-2,2.14-4.55,5.67-7.76Z" fill="#7ccf92" stroke="#002346" stroke-miterlimit="10"></path>
    <path d="M215.92,209.8s-1.88,5.98-5.43,8.21c-4.14,2.61-8.21-3.94-4.02-6.49,1.77-1.08,4.69-1.83,9.45-1.72Z" fill="#7ccf92" stroke="#002346" stroke-miterlimit="10"></path>
    <path d="M210.75,190.22s.42,6.25-2.08,9.62c-2.91,3.94-9.08-.7-6.1-4.59,1.26-1.64,3.7-3.41,8.18-5.04Z" fill="#7ccf92" stroke="#002346" stroke-miterlimit="10"></path>
    <path d="M246.01,149.42s5.52-2.96,7.06-6.86c1.8-4.55-5.4-7.33-7.12-2.75-.73,1.94-.93,4.94,.06,9.61Z" fill="#7ccf92" stroke="#002346" stroke-miterlimit="10"></path>
    <path d="M262.94,154.49s5.16,3.55,9.33,3.13c4.87-.49,4.04-8.16-.82-7.59-2.05,.24-4.82,1.44-8.51,4.46Z" fill="#7ccf92" stroke="#002346" stroke-miterlimit="10"></path>
    <path d="M263.05,155.25s-4.4,4.46-4.72,8.64c-.37,4.88,7.32,5.41,7.62,.52,.12-2.07-.57-5-2.89-9.16Z" fill="#7ccf92" stroke="#002346" stroke-miterlimit="10"></path>
    <path d="M267.67,169.26s-6.26,.16-9.39,2.96c-3.65,3.26,1.53,8.97,5.13,5.65,1.52-1.4,3.05-4,4.26-8.61Z" fill="#7ccf92" stroke="#002346" stroke-miterlimit="10"></path>
    <path d="M269.96,169.26s6.26,.16,9.39,2.96c3.65,3.26-1.53,8.97-5.13,5.65-1.52-1.4-3.05-4-4.26-8.61Z" fill="#7ccf92" stroke="#002346" stroke-miterlimit="10"></path>
    <path d="M268.34,185.41s6.26,.16,9.39,2.96c3.65,3.26-1.53,8.97-5.13,5.65-1.52-1.4-3.05-4-4.26-8.61Z" fill="#7ccf92" stroke="#002346" stroke-miterlimit="10"></path>
    <path d="M267.73,197.86s5.5,3,7.02,6.91c1.77,4.57-5.45,7.3-7.14,2.7-.72-1.94-.9-4.95,.12-9.61Z" fill="#7ccf92" stroke="#002346" stroke-miterlimit="10"></path>
    <path d="M267.08,185.76s-.16,6.26-2.95,9.39c-3.26,3.65-8.98-1.52-5.66-5.13,1.4-1.52,4-3.05,8.61-4.27Z" fill="#7ccf92" stroke="#002346" stroke-miterlimit="10"></path>
    <path d="M246.83,149.87c-.83-.06-1.47,.76-1.18,1.54,.73,1.97,2.23,5.22,4.54,6.82,4.03,2.79,8.37-3.59,4.29-6.31-1.5-1-3.9-1.8-7.66-2.05Z" fill="#7ccf92" stroke="#002346" stroke-miterlimit="10"></path>
    <path d="M226.45,144.48s-5.61-2.79-7.26-6.65c-1.93-4.5,5.18-7.49,7.04-2.96,.79,1.91,1.08,4.92,.22,9.6Z" fill="#7ccf92" stroke="#002346" stroke-miterlimit="10"></path>
    <path d="M216.75,149.33s-5.61-2.79-7.26-6.65c-1.93-4.5,5.18-7.49,7.04-2.96,.79,1.91,1.08,4.92,.22,9.6Z" fill="#7ccf92" stroke="#002346" stroke-miterlimit="10"></path>
    <path d="M258.54,91.96s-3.53-5.18-3.1-9.35c.51-4.87,8.17-4.01,7.59,.85-.25,2.05-1.46,4.82-4.49,8.49Z" fill="#7ccf92" stroke="#002346" stroke-miterlimit="10"></path>
  </g>
  <g>
    <polygon points="166.78 270.08 203.17 270.08 197.38 308.13 172.57 308.13 166.78 270.08" fill="#fff" stroke="#002346" stroke-miterlimit="10"></polygon>
    <path d="M200.27,265.54c8.27,.83,9.1,9.92,9.1,9.92v11.7c0,.77-.74,1.32-1.47,1.11l-4.32-1.23c-5.59-1.86-8.38-7.46-9.43-10.13-.49-1.24-1.17-2.41-2.11-3.36-3.88-3.88-8.31-3.88-8.31-3.88-.83,.83-3.31,1.65-3.31,1.65-2.18,.54-2.92,3.59-3.18,5.61-.31,2.49-.89,4.94-1.86,7.25-3.64,8.63-9.02,8.63-9.02,8.63-4.14,0-1.65-10.75-1.65-10.75,1.65-10.75,5.79-13.23,5.79-13.23,0,0-4.14,0-8.27,1.65,0,0-14.06,3.31-17.37-8.27,0,0-2.48-9.92,4.14-4.96,0,0,4.14,3.31,13.23,0,0,0,3.31-1.65,5.79-1.65,0,0-5.79-2.48-5.79-9.1v-3.31s-.83-3.31,3.31-.83l8.27,2.48s6.83,1.52,8.13,6.73c.03,.13,.21,.12,.23,0,.35-2.23,1.85-9.08,7.35-12.51,0,0,2.04-1.02,3.72-2.66,1.09-1.06,2.85-1.06,3.95,0,.96,.92,1.87,2.4,2.21,4.77,.28,1.98-.03,3.99-.73,5.86-.93,2.46-2.55,6.41-4.18,8.58,0,0,5.79-6.62,17.37-4.14,0,0,7.44,1.65,8.27,1.65,.48,0,2.95-.85,4.91-1.55,1.67-.6,3.48,.49,3.71,2.25,.05,.39,.08,.81,.07,1.27-.05,3.77-2.64,7.04-6.21,8.23-1.67,.55-3.86,1.08-6.62,1.39l-15.71,.83Z" fill="#7ccf92" stroke="#002346" stroke-miterlimit="10"></path>
    <path d="M168.02,255.61s7.44-1.65,15.71,14.06" fill="none" stroke="#002346" stroke-linecap="round" stroke-linejoin="round"></path>
    <path d="M182.18,251.59s-1.1,5.77,2.71,18.13" fill="none" stroke="#002346" stroke-linecap="round" stroke-linejoin="round"></path>
    <path d="M195.29,254.55s-8.9,7.94-9.4,15.66" fill="none" stroke="#002346" stroke-linecap="round" stroke-linejoin="round"></path>
    <path d="M200.93,265.58s-11.38-3.42-14.29,4.89" fill="none" stroke="#002346" stroke-linecap="round" stroke-linejoin="round"></path>
    <path d="M170.5,268.84s5.49-4.12,12.25,1.25" fill="none" stroke="#002346" stroke-linecap="round" stroke-linejoin="round"></path>
  </g>
  <path d="M277.86,265.6c24.23-2.6,39.53-21.26,43.78-27.12,.42-.58,1.33-.35,1.43,.36,.69,4.8,3.46,16.79,14.29,25.51,.46,.37,1.15,.12,1.28-.45l2.58-11.01c.05-.22,0-.46-.13-.65l-12.87-18.02c-.07-.09-.15-.17-.25-.23l-15.36-8.96c-.2-.12-.44-.14-.66-.07l-23.23,7.74c-.1,.03-.2,.09-.28,.16l-12.76,11.49c-.18,.17-.28,.41-.26,.66l1.54,19.83c.04,.45,.44,.79,.89,.74Z" fill="#002346" stroke="#002346" stroke-miterlimit="10"></path>
  <path d="M276.26,279.15s.44-.39,1.05-1.27c1.38-2,2.04-4.41,2.04-6.84v-10.58l-3.3,2.64,.21,16.05Z" fill="#002346" stroke="#002346" stroke-miterlimit="10"></path>
  <path d="M334.71,260.46v8.61c0,2.32,1.23,4.5,3.29,5.56l.1,.05v-14.12l-3.39-.09Z" fill="#002346" stroke="#002346" stroke-miterlimit="10"></path>
  <path d="M288.04,268.53s4.53-6.8,13.6-2.27" fill="none" stroke="#002346" stroke-linecap="round" stroke-linejoin="round" stroke-width="2"></path>
  <path d="M313.86,265.05s6.52-4.93,13.59,2.34" fill="none" stroke="#002346" stroke-linecap="round" stroke-linejoin="round" stroke-width="2"></path>
  <path d="M306.18,276.46l-1.03,13.41c-.06,.72,.51,1.33,1.23,1.33h4.34" fill="none" stroke="#002346" stroke-linecap="round" stroke-linejoin="round"></path>
  <path d="M299.38,296.87s7.94,5.67,17-1.13" fill="none" stroke="#002346" stroke-linecap="round" stroke-linejoin="round"></path>
  <line x1="303.91" y1="303.67" x2="311.85" y2="303.67" fill="none" stroke="#002346" stroke-linecap="round" stroke-linejoin="round"></line>
  <ellipse cx="294.84" cy="274.76" rx="2.27" ry="2.83" fill="#002346" stroke="#002346" stroke-miterlimit="10"></ellipse>
  <circle cx="318.65" cy="274.76" r="2.27" fill="#002346" stroke="#002346" stroke-miterlimit="10"></circle>
  <circle cx="285.27" cy="287.48" r="1.32" fill="#efa3b7"></circle>
  <circle cx="290.55" cy="287.48" r="1.32" fill="#efa3b7"></circle>
  <circle cx="289.23" cy="292.75" r="1.32" fill="#efa3b7"></circle>
  <circle cx="320.86" cy="286.16" r="1.32" fill="#efa3b7"></circle>
  <circle cx="326.14" cy="286.16" r="1.32" fill="#efa3b7"></circle>
  <circle cx="324.82" cy="291.43" r="1.32" fill="#efa3b7"></circle>
  <circle cx="515.95" cy="424.57" r="1.32" fill="#efa3b7"></circle>
  <circle cx="521.23" cy="424.57" r="1.32" fill="#efa3b7"></circle>
  <circle cx="518.59" cy="429.84" r="1.32" fill="#efa3b7"></circle>
  <path d="M276.8,286.88c-.69,1.15-1.95,1.91-3.39,1.91-2.18,0-3.95-1.77-3.95-3.95s1.77-3.95,3.95-3.95" fill="none" stroke="#fff" stroke-linecap="round" stroke-linejoin="round"></path>
  <path d="M338,286.88c.69,1.15,1.95,1.91,3.39,1.91,2.18,0,3.95-1.77,3.95-3.95s-1.77-3.95-3.95-3.95" fill="none" stroke="#fff" stroke-linecap="round" stroke-linejoin="round"></path>
  <path d="M488.59,422.75s-4.93-31.8,20.12-37.07c0,0,4.09,38.22,34.06,29l19.98,13.18s9.99-61.6-19.98-52.38c0,0-64.55-29.97-55.33,4.61,0,0-13.83,18.44,1.15,42.65Z" fill="#002346" stroke="#002346" stroke-miterlimit="10"></path>
  <path d="M558.15,423.25s12.95,12.95,11.51,34.54c0,0,1.44,12.95-12.95,14.39,0,0-14.39,2.88-14.39-15.83l1.44-25.54,14.39-7.56Z" fill="#002346" stroke="#002346" stroke-miterlimit="10"></path>
  <circle cx="550.23" cy="423.25" r="9.89" fill="#f0b1bf" stroke="#002346" stroke-miterlimit="10"></circle>
  <g>
    <path d="M543.54,462.75l14.67,18.78c1.96,2.51,1.52,6.14-1,8.1l-17.82,13.92c-2.51,1.96-6.14,1.52-8.1-1l-14.67-18.78c-1.03-1.32-.8-3.23,.52-4.26l.6-.47c1.32-1.03,3.23-.8,4.26,.52l7.48,9.57c1.29,1.65,3.68,1.95,5.33,.66h0c1.65-1.29,1.95-3.68,.66-5.33l-7.94-10.17c-1.03-1.32-.8-3.23,.52-4.26h0c1.32-1.03,3.23-.8,4.26,.52l7.94,10.17c1.29,1.65,3.68,1.95,5.33,.66h0c1.65-1.29,1.95-3.68,.66-5.33l-7.48-9.57c-1.03-1.32-.8-3.23,.52-4.26h0c1.32-1.03,3.23-.8,4.26,.52Z" fill="#438dca" stroke="#002346" stroke-miterlimit="10"></path>
    <path d="M537.8,491.38h15.94c2.09,0,3.8,1.7,3.8,3.8h0c0,2.09-1.7,3.8-3.8,3.8h-15.94v-7.59h0Z" transform="translate(494.47 1231.58) rotate(-127.99)" fill="#fff" stroke="#002346" stroke-miterlimit="10"></path>
    <rect x="547.87" y="509.62" width="28.09" height="7.59" transform="translate(503.11 1272.29) rotate(-127.99)" fill="#fff" stroke="#002346" stroke-miterlimit="10"></rect>
    <path d="M573.45,527.25h12.15v10.63h-12.15c-2.93,0-5.31-2.38-5.31-5.31h0c0-2.93,2.38-5.31,5.31-5.31Z" transform="translate(512.17 1315.01) rotate(-127.99)" fill="#fff" stroke="#002346" stroke-miterlimit="10"></path>
    <rect x="552.07" y="497.93" width="3.8" height="10.63" rx="1.9" ry="1.9" transform="translate(498.29 1249.6) rotate(-127.99)" fill="#e6e6e6" stroke="#002346" stroke-miterlimit="10"></rect>
    <rect x="569.36" y="517.79" width="3.8" height="15.18" rx="1.9" ry="1.9" transform="translate(508.78 1298.99) rotate(-127.99)" fill="#438dca" stroke="#002346" stroke-miterlimit="10"></rect>
  </g>
  <path d="M612.84,541.23l-5.18,7.25h-30.67l-3.69-4.61s-3.18,5.29-6.67,3.55c-.96-.47-1.7-1.32-2.1-2.31-.43-1.16-.62-2.97,.86-5.19,0,0-9.23,2.64-7.91-6.59,0,0-5.27,2.64-7.91-1.32,0,0-3.95-6.59,3.95-9.23,0,0-8.86-1.11-5.26-7.38,.62-1.09,1.52-2,2.52-2.75l13.08-9.81c1.99-1.49,4.19-2.7,6.56-3.45,4.17-1.3,10.12-1.75,14.74,3.62l27.68,38.23Z" fill="#78f574" stroke="#002346" stroke-linecap="round" stroke-linejoin="round"></path>
  <line x1="553.52" y1="522.77" x2="564.07" y2="517.5" fill="none" stroke="#002346" stroke-linecap="round" stroke-linejoin="round"></line>
  <line x1="557.48" y1="533.32" x2="566.02" y2="527.02" fill="none" stroke="#002346" stroke-linecap="round" stroke-linejoin="round"></line>
  <line x1="565.39" y1="539.91" x2="573.3" y2="534.64" fill="none" stroke="#002346" stroke-linecap="round" stroke-linejoin="round"></line>
  <rect x="610.69" y="514.57" width="27.64" height="8.06" fill="#7ccf92" stroke="#002346" stroke-miterlimit="10"></rect>
  <polygon points="616.34 514.61 616.34 502.48 604.36 499.02 604.36 485.2 634.3 485.2 641.2 494.42 630.84 502.48 630.84 514.61 616.34 514.61" fill="#fff" stroke="#002346" stroke-miterlimit="10"></polygon>
  <polygon points="604.36 485.2 595.14 485.2 595.14 496.72 604.36 499.02 604.36 485.2" fill="#7ccf92" stroke="#002346" stroke-miterlimit="10"></polygon>
  <polygon points="607.21 499.92 598.6 519.75 610.45 519.75 610.69 514.57 616.34 514.57 616.34 502.48 607.21 499.92" fill="#7ccf92" stroke="#002346" stroke-miterlimit="10"></polygon>
  <path d="M610.69,522.63s-7.8,4.13-10.29,14.03c-.48,1.9-.64,3.86-.64,5.82v36.93c0,3.3,2.67,5.97,5.97,5.97h42.4v-44.91s0-12.67-9.79-17.85h-27.64Z" fill="#fff" stroke="#002346" stroke-miterlimit="10"></path>
  <polygon points="653.41 560.56 658.78 577.38 696.01 577.38 702.1 560.56 653.41 560.56" fill="#e6e6e6" stroke="#002346" stroke-miterlimit="10"></polygon>
  <path d="M660,553.64s.21-7.05,9.52-6.33c0,0,6.44-10.02,17.18-1.43,0,0,8.91-.83,11.26,7.46l-37.96,.3Z" fill="#8c6239" stroke="#002346" stroke-miterlimit="10"></path>
  <line x1="678.83" y1="500.06" x2="678.83" y2="542.83" fill="none" stroke="#002346" stroke-linecap="round" stroke-linejoin="round"></line>
  <path d="M687.7,490.08c.19,5.3-1.75,8.22-3.9,9.83-3.19,2.4-7.78,2.15-10.65-.62-2.73-2.63-2.8-6.41-2.65-9.05,.16-2.91,3.48-4.65,5.85-2.95,1.75,1.26,2.48,3.46,2.48,3.46,0,0,1.35-3.03,4.04-4.01,2.3-.84,4.74,.9,4.83,3.34Z" fill="#4c9060" stroke="#002346" stroke-miterlimit="10"></path>
  <path d="M679.01,523.88s-1.62-14.52,15.57-12.37c0,0,.37,16.15-15.57,12.37Z" fill="#7ccf92" stroke="#002346" stroke-miterlimit="10"></path>
  <line x1="679.01" y1="523.88" x2="689.29" y2="516.18" fill="none" stroke="#002346" stroke-linecap="round" stroke-linejoin="round"></line>
  <path d="M678.79,529.61s1.62-14.52-15.57-12.37c0,0-.37,16.15,15.57,12.37Z" fill="#7ccf92" stroke="#002346" stroke-miterlimit="10"></path>
  <line x1="678.79" y1="529.61" x2="668.2" y2="521.45" fill="none" stroke="#002346" stroke-linecap="round" stroke-linejoin="round"></line>
  <path d="M682.66,580.78l-5.76,4.61h-23.03l-18.42-6.91-.24-6.93s7.15-4.58,15.21-1.13c0,0,2.81-6.33,10.08-7.99,4.47-1.03,9.13,.27,12.78,3.04,2.85,2.16,5.94,7.9,7.08,13.01l2.3,2.3Z" fill="#8c6239" stroke="#002346" stroke-miterlimit="10"></path>
  <path d="M612.89,585.18s.68-7.86,9.89-6.7c0,0,5.76-13.82,18.42-3.45,0,0,11.52-3.45,12.67,10.36l-40.98-.2Z" fill="#8c6239" stroke="#002346" stroke-miterlimit="10"></path>
  <path d="M676.9,585.39s-1.15-10.36,11.52-9.21c0,0,9.21-11.52,18.42,1.15,0,0,8.06,1.15,8.06,8.06h-38Z" fill="#8c6239" stroke="#002346" stroke-miterlimit="10"></path>
  <rect x="649.83" y="553.4" width="55.85" height="7.16" rx="3.58" ry="3.58" fill="#e6e6e6" stroke="#002346" stroke-miterlimit="10"></rect>
  <path d="M490.83,404.68s3.47-.55,7.99,.77" fill="none" stroke="#002346" stroke-linecap="round" stroke-linejoin="round" stroke-width="2"></path>
  <path d="M507.96,406s3.47-.55,7.99,.77" fill="none" stroke="#002346" stroke-linecap="round" stroke-linejoin="round" stroke-width="2"></path>
  <circle cx="494.86" cy="415.34" r="1.32" fill="#002346" stroke="#002346" stroke-miterlimit="10"></circle>
  <circle cx="510.68" cy="416.66" r="1.32" fill="#002346" stroke="#002346" stroke-miterlimit="10"></circle>
  <path d="M501.45,420.61l-1.78,8.25c-.26,1.18,.7,2.27,1.9,2.18l3.15-.24" fill="none" stroke="#002346" stroke-linecap="round" stroke-linejoin="round"></path>
  <ellipse cx="511.34" cy="437.09" rx="3.95" ry="2.64" fill="#fff" stroke="#002346" stroke-miterlimit="10"></ellipse>
  <circle cx="548.25" cy="434.46" r="3.95" fill="#78f574" stroke="#002346" stroke-linecap="round" stroke-linejoin="round"></circle>
</svg>
